<svg width="35" height="35" xmlns="http://www.w3.org/2000/svg" xmlns:xlink="http://www.w3.org/1999/xlink" xml:space="preserve" overflow="hidden"><defs><clipPath id="clip0"><rect x="622" y="342" width="35" height="35"/></clipPath><clipPath id="clip1"><rect x="623" y="343" width="34" height="34"/></clipPath><clipPath id="clip2"><rect x="623" y="343" width="34" height="34"/></clipPath><clipPath id="clip3"><rect x="623" y="343" width="34" height="34"/></clipPath><clipPath id="clip4"><rect x="623" y="343" width="34" height="34"/></clipPath></defs><g clip-path="url(#clip0)" transform="translate(-622 -342)"><g clip-path="url(#clip1)"><g clip-path="url(#clip2)"><g clip-path="url(#clip3)"><g clip-path="url(#clip4)"><path d="M627.25 343C624.903 343 623 344.903 623 347.25L623 374.435C623 375.022 623.476 375.498 624.063 375.497 624.345 375.497 624.615 375.385 624.815 375.185L630.877 369.123C631.276 368.724 631.816 368.5 632.38 368.5L652.75 368.5C655.097 368.5 657 366.597 657 364.25L657 347.25C657 344.903 655.097 343 652.75 343L627.25 343Z" fill="#ED7D31" fill-rule="nonzero" fill-opacity="1"/></g></g></g></g></g></svg>