<svg width="34" height="34" xmlns="http://www.w3.org/2000/svg" xmlns:xlink="http://www.w3.org/1999/xlink" xml:space="preserve" overflow="hidden"><defs><clipPath id="clip0"><rect x="632" y="352" width="34" height="34"/></clipPath></defs><g clip-path="url(#clip0)" transform="translate(-632 -352)"><path d="M636.25 352C633.903 352 632 353.903 632 356.25L632 373.25C632 375.597 633.903 377.5 636.25 377.5L641.562 377.5C642.231 377.5 642.861 377.815 643.263 378.35L647.3 383.733C648.004 384.671 649.336 384.862 650.275 384.158 650.436 384.037 650.579 383.894 650.7 383.733L654.737 378.35C655.139 377.815 655.769 377.5 656.438 377.5L661.75 377.5C664.097 377.5 666 375.597 666 373.25L666 356.25C666 353.903 664.097 352 661.75 352L636.25 352Z" fill="#F8CEB9" fill-rule="nonzero" fill-opacity="1"/></g></svg>