<svg width="35" height="35" xmlns="http://www.w3.org/2000/svg" xmlns:xlink="http://www.w3.org/1999/xlink" xml:space="preserve" overflow="hidden"><defs><clipPath id="clip0"><rect x="606" y="326" width="35" height="35"/></clipPath><clipPath id="clip1"><rect x="607" y="327" width="34" height="34"/></clipPath><clipPath id="clip2"><rect x="607" y="327" width="34" height="34"/></clipPath><clipPath id="clip3"><rect x="607" y="327" width="34" height="34"/></clipPath><clipPath id="clip4"><rect x="607" y="327" width="34" height="34"/></clipPath></defs><g clip-path="url(#clip0)" transform="translate(-606 -326)"><g clip-path="url(#clip1)"><g clip-path="url(#clip2)"><g clip-path="url(#clip3)"><g clip-path="url(#clip4)"><path d="M624 361C624 361 636.75 348.917 636.75 339.75 636.75 332.708 631.042 327 624 327 616.958 327 611.25 332.708 611.25 339.75 611.25 348.917 624 361 624 361ZM624 346.125C620.479 346.125 617.625 343.271 617.625 339.75 617.625 336.229 620.479 333.375 624 333.375 627.521 333.375 630.375 336.229 630.375 339.75 630.375 343.271 627.521 346.125 624 346.125Z" fill="#4472C4" fill-rule="nonzero" fill-opacity="1"/></g></g></g></g></g></svg>